<svg width="34" height="35" viewBox="0 0 34 35" fill="none" xmlns="http://www.w3.org/2000/svg">
<path d="M21.7455 24.8129L23.1829 23.4223V23.4223L21.7455 24.8129ZM28.5643 31.8609L27.127 33.2516L27.127 33.2516L28.5643 31.8609ZM21.7457 22.4657L20.3085 21.0749L20.3085 21.0749L21.7457 22.4657ZM24.0174 22.4659L22.5801 23.8565L22.5801 23.8565L24.0174 22.4659ZM30.8363 29.5139L32.2737 28.1232L32.2737 28.1232L30.8363 29.5139ZM30.8361 31.8611L32.2733 33.2519L30.8361 31.8611ZM21.4256 19.26C20.6575 18.4663 19.3913 18.4455 18.5976 19.2137C17.8039 19.9818 17.7831 21.248 18.5512 22.0417L21.4256 19.26ZM20.308 23.857C21.0761 24.6508 22.3423 24.6715 23.1361 23.9034C23.9298 23.1352 23.9506 21.8691 23.1824 21.0753L20.308 23.857ZM20.3082 23.8569C21.0763 24.6506 22.3425 24.6714 23.1362 23.9032C23.9299 23.1351 23.9507 21.8689 23.1826 21.0752L20.3082 23.8569ZM21.4258 19.2599C20.6577 18.4661 19.3915 18.4454 18.5978 19.2135C17.804 19.9816 17.7832 21.2478 18.5514 22.0415L21.4258 19.2599ZM4.11693 7.12593C4.88507 7.91967 6.15123 7.94043 6.94498 7.17229C7.73872 6.40415 7.75948 5.13799 6.99134 4.34424L4.11693 7.12593ZM4.15742 1.41586C3.38928 0.622111 2.12312 0.601353 1.32937 1.36949C0.535626 2.13764 0.514869 3.4038 1.28301 4.19754L4.15742 1.41586ZM20.3081 26.2036L27.127 33.2516L30.0017 30.4703L23.1829 23.4223L20.3081 26.2036ZM20.3085 21.0749C18.9309 22.4984 18.9308 24.7799 20.3081 26.2036L23.1829 23.4223C23.251 23.4927 23.2752 23.5758 23.2752 23.6394C23.2752 23.703 23.251 23.7862 23.1829 23.8566L20.3085 21.0749ZM25.4548 21.0752C24.0416 19.6145 21.7219 19.6143 20.3085 21.0749L23.1829 23.8566C23.1115 23.9303 23.0003 23.9796 22.8814 23.9796C22.7626 23.9796 22.6514 23.9302 22.5801 23.8565L25.4548 21.0752ZM32.2737 28.1232L25.4548 21.0752L22.5801 23.8565L29.3989 30.9045L32.2737 28.1232ZM32.2733 33.2519C33.6509 31.8284 33.651 29.5469 32.2737 28.1232L29.3989 30.9045C29.3308 30.8341 29.3066 30.751 29.3066 30.6874C29.3066 30.6238 29.3308 30.5406 29.3989 30.4702L32.2733 33.2519ZM27.127 33.2516C28.5402 34.7123 30.8599 34.7125 32.2733 33.2519L29.3989 30.4702C29.4703 30.3965 29.5815 30.3472 29.7003 30.3472C29.8192 30.3472 29.9304 30.3965 30.0017 30.4703L27.127 33.2516ZM18.5512 22.0417L20.308 23.857L23.1824 21.0753L21.4256 19.26L18.5512 22.0417ZM23.1826 21.0752L21.4258 19.2599L18.5514 22.0415L20.3082 23.8569L23.1826 21.0752ZM6.99134 4.34424L4.15742 1.41586L1.28301 4.19754L4.11693 7.12593L6.99134 4.34424Z" fill="#5D5FEF"/>
<path d="M2.92674 10.4488C3.87053 6.80914 6.62173 3.96623 10.144 2.99099V2.99099C13.6662 2.01574 17.4245 3.05632 20.0029 5.72074V5.72074C22.5814 8.38516 23.5884 12.2686 22.6446 15.9083V15.9083C21.7008 19.548 18.9496 22.3909 15.4274 23.3661V23.3661C11.9051 24.3414 8.14691 23.3008 5.56844 20.6364V20.6364C2.98996 17.972 1.98295 14.0885 2.92674 10.4488V10.4488Z" stroke="#5D5FEF" stroke-width="4" stroke-linecap="round" stroke-linejoin="round"/>
</svg>
